<svg width="51" height="67" fill="none" xmlns="http://www.w3.org/2000/svg"><path d="M17.2 37.65a4.15 4.15 0 11-8.3 0 4.15 4.15 0 018.3 0zM17.2 50.1a4.15 4.15 0 11-8.3 0 4.15 4.15 0 018.3 0zM37.95 41.8a4.15 4.15 0 100-8.3 4.15 4.15 0 000 8.3zM42.1 50.1a4.15 4.15 0 11-8.3 0 4.15 4.15 0 018.3 0zM25.5 41.8a4.15 4.15 0 100-8.3 4.15 4.15 0 000 8.3zM29.65 50.1a4.15 4.15 0 11-8.3 0 4.15 4.15 0 018.3 0zM15.125 8.6A6.225 6.225 0 008.9 14.825v4.15a6.225 6.225 0 006.225 6.225h20.75a6.225 6.225 0 006.225-6.225v-4.15A6.225 6.225 0 0035.875 8.6h-20.75zm-2.075 6.225a2.075 2.075 0 012.075-2.075h20.75a2.075 2.075 0 012.075 2.075v4.15a2.075 2.075 0 01-2.075 2.075h-20.75a2.075 2.075 0 01-2.075-2.075v-4.15z" fill="#F67952"/><path d="M50.4 56.325A10.375 10.375 0 0140.025 66.7h-29.05A10.375 10.375 0 01.6 56.325v-45.65A10.375 10.375 0 0110.975.3h29.05A10.375 10.375 0 0150.4 10.675v45.65zm-4.15-45.65a6.225 6.225 0 00-6.225-6.225h-29.05a6.225 6.225 0 00-6.225 6.225v45.65a6.225 6.225 0 006.225 6.225h29.05a6.225 6.225 0 006.225-6.225v-45.65z" fill="#F67952"/></svg>