<svg width="57" height="53" fill="none" xmlns="http://www.w3.org/2000/svg"><path d="M37.638 3.073a1.844 1.844 0 10-3.526-1.084l-14.75 47.938a1.844 1.844 0 103.526 1.084l14.75-47.938zm-20.739 9.215a1.843 1.843 0 010 2.611L5.295 26.5l11.604 11.6a1.846 1.846 0 11-2.61 2.612L1.382 27.805a1.844 1.844 0 010-2.61l12.906-12.907a1.845 1.845 0 012.611 0zm23.202 0a1.845 1.845 0 000 2.611L51.706 26.5 40.1 38.1a1.846 1.846 0 102.61 2.612l12.907-12.907a1.845 1.845 0 000-2.61L42.712 12.288a1.844 1.844 0 00-2.611 0z" fill="#0EA2F6"/></svg>