<svg width="542" height="428" fill="none" xmlns="http://www.w3.org/2000/svg"><path d="M500.75 344.056c-2.7.004-5.394.267-8.043.786a45.08 45.08 0 00-36.773-37.127 45.083 45.083 0 00-47.14 22.55 36.227 36.227 0 00-28.475-22.09 36.223 36.223 0 00-33.447 13.419 45.077 45.077 0 00-46.587-12.563 45.089 45.089 0 00-31.263 36.753 40.431 40.431 0 00-45.526 16.758 40.429 40.429 0 0017.089 58.734 40.423 40.423 0 0016.813 3.678h243.257a40.433 40.433 0 100-80.866l.095-.032z" fill="#FF9C7E"/><path d="M283.655 341.007a42.574 42.574 0 00-8.042.785 45.081 45.081 0 00-83.913-14.577 36.196 36.196 0 00-46.963-19.838 36.195 36.195 0 00-14.928 11.167 45.11 45.11 0 00-46.53-12.461 45.115 45.115 0 00-31.257 36.652 40.432 40.432 0 10-11.593 79.169h243.226a40.436 40.436 0 0028.591-11.842 40.436 40.436 0 000-57.181 40.433 40.433 0 00-28.591-11.843v-.031z" fill="#FF9C7E"/><path d="M456.456 153.851a31.417 31.417 0 00-31.417 31.417 31.416 31.416 0 00-31.416-31.417 31.416 31.416 0 0031.416-31.416 31.417 31.417 0 0031.417 31.416zM526.569 224.645c1.087-5.108-6.492-11.051-16.928-13.273-10.437-2.222-19.78.117-20.867 5.225-1.088 5.109 6.491 11.051 16.928 13.273 10.437 2.222 19.779-.117 20.867-5.225z" fill="#FFCB63"/><path d="M256.679 45.968s-16.085-6.755-4.618-19.322a9.865 9.865 0 0113.76 3.142" fill="#454545"/><path d="M218.822 334.59c-8.356-4.304-12.566-169.177-12.566-169.177a34.558 34.558 0 0123.845-37.7l46.213-14.514a34.333 34.333 0 0120.735 0l45.994 14.451a34.555 34.555 0 0123.876 37.7s-6.471 83.379-8.922 164.433c0 0-66.634 42.444-139.175 4.807z" fill="#fff"/><path d="M282.064 351.775a137.538 137.538 0 01-63.964-15.708c-8.514-4.399-12.347-131.666-13.289-170.56a35.909 35.909 0 0124.944-39.271l46.026-14.483a35.94 35.94 0 0121.677 0l45.993 14.483a36.04 36.04 0 0124.977 39.428c0 .754-6.284 84.133-8.766 164.308v.848l-.691.44a158.493 158.493 0 01-76.907 20.515zm-62.487-18.536c66.948 34.558 129.655 0 136.975-4.272 2.356-79.987 8.671-162.863 8.734-163.68a32.928 32.928 0 00-22.777-36.129l-45.994-14.483a33.235 33.235 0 00-19.792 0l-46.025 14.483a32.89 32.89 0 00-22.777 36.035c1.571 62.267 6.095 162.674 11.656 168.046z" fill="#454545"/><path d="M409.897 292.304l-30.568-53.817 36.474-17.027 25.102 47.878" fill="#fff"/><path d="M409.897 293.874a1.634 1.634 0 01-1.383-.785l-30.568-53.816a1.579 1.579 0 010-1.257 1.602 1.602 0 01.817-.942l36.506-17.06a1.6 1.6 0 012.073.723l25.134 47.879a1.536 1.536 0 01-.181 1.726 1.546 1.546 0 01-.479.379 1.58 1.58 0 01-1.199.129 1.568 1.568 0 01-.938-.758l-24.41-46.559-33.584 15.708 29.72 52.309a1.536 1.536 0 01-.566 2.136 1.778 1.778 0 01-.942.188z" fill="#454545"/><path d="M418.38 284.387l-76.939 20.263c-1.28.301-2.583.49-3.896.566-3.55 0-14.546-1.131-20.735.408a1.738 1.738 0 00-1.124 1.5 1.731 1.731 0 00.904 1.642c3.299 1.257 8.294 2.105 9.174 3.142 0 0 1.979 2.356-3.142 3.864-5.843 1.728-19.195 5.089-27.552 6.44-.352.072-.667.27-.884.556a1.482 1.482 0 00.147 1.948c.258.251.598.4.957.418a175.978 175.978 0 0027.018-2.576l-.345.502c-7.98 2.262-22.84 5.812-30.789 7.195a1.484 1.484 0 00-1.35 1.602 1.48 1.48 0 001.602 1.351 201.046 201.046 0 0030.285-2.922l.189.346c-6.629 1.885-17.436 4.21-24.568 5.372a1.48 1.48 0 00-.884.556 1.482 1.482 0 00.147 1.948c.258.251.598.4.957.418 9.611-.2 19.191-1.156 28.652-2.859l.377.314a48.396 48.396 0 01-13.478 3.644c-1.822.252-1.445 3.393.409 3.33a231.759 231.759 0 0027.018-3.141l8.859-1.571 88.626-19.038a20.48 20.48 0 0014.214-11.329 20.484 20.484 0 00-.391-18.171l-10.901-20.735" fill="#fff"/><path d="M313.386 345.02a3.145 3.145 0 01-3.142-3.141 3.489 3.489 0 01.503-2.137c-4.367.44-9.048.723-13.289.723a3.142 3.142 0 01-1.257-5.812h-4.869a3.142 3.142 0 01-3.142-2.827 3.145 3.145 0 012.482-3.142c2.921-.503 6.66-1.288 10.587-2.168h-6.283a3.144 3.144 0 01-2.523-2.837 3.14 3.14 0 012.052-3.195c8.074-1.319 21.3-4.618 27.363-6.283 2.168-.628 2.419-1.257 2.419-1.288a17.512 17.512 0 00-3.99-1.351c-1.445-.408-3.141-.817-4.272-1.32a3.142 3.142 0 01-2.137-3.141c.014-.728.268-1.43.723-1.998a3.292 3.292 0 011.791-1.144 71.956 71.956 0 0118.127-.565h3.142a20.994 20.994 0 003.518-.534l76.876-20.075a1.608 1.608 0 011.231.171 1.64 1.64 0 01.749.991 1.622 1.622 0 01-.593 1.703c-.17.129-.364.223-.57.276l-76.939 20.107a22.924 22.924 0 01-4.241.628h-3.141a73.475 73.475 0 00-17.217.503v.345c1.194.44 2.639.849 4.022 1.225 3.141.88 4.995 1.414 5.812 2.482a3.14 3.14 0 01.597 2.954c-.472 1.539-1.948 2.639-4.556 3.393a281.361 281.361 0 01-28.055 6.283 203.193 203.193 0 0026.736-2.733 1.567 1.567 0 011.602.722 1.639 1.639 0 010 1.728l-.377.503a1.51 1.51 0 01-.848.597c-7.729 2.199-22.589 5.78-30.914 7.257a224.746 224.746 0 0030.003-3.142 1.607 1.607 0 011.696.911 2.014 2.014 0 010 1.477c-.22.44-.503.942-.942 1.068-6.566 1.822-17.437 4.21-24.725 5.372a204.016 204.016 0 0028.275-3.141 1.69 1.69 0 011.288.345 2.019 2.019 0 01.722 1.54c0 .534-.188 1.13-.628 1.35a49.624 49.624 0 01-13.949 3.802s0 .188.189.251a240.523 240.523 0 0026.704-3.142l8.859-1.57 88.563-19.039a18.825 18.825 0 007.793-3.675 18.847 18.847 0 004.962-23.531l-10.493-20.704a1.57 1.57 0 011.851-2.219 1.551 1.551 0 01.913.774l10.902 20.735a21.995 21.995 0 01-5.787 27.477 22.008 22.008 0 01-9.104 4.285l-88.783 19.007-8.891 1.571a234.595 234.595 0 01-27.238 3.141l-.157.157z" fill="#454545"/><path d="M444.235 299.215s-3.55 7.477 0 7.289c3.55-.189 1.131-3.644 1.131-3.644" fill="#fff"/><path d="M444.109 308.075a2.803 2.803 0 01-2.45-1.226c-1.477-2.199.314-6.534 1.162-8.293a1.573 1.573 0 012.649-.456 1.57 1.57 0 01.179 1.806c-.22.44-.409.943-.597 1.414a1.664 1.664 0 011.602.629 4.864 4.864 0 01.786 4.398 3.331 3.331 0 01-3.142 1.728h-.189zm0-3.99c-.086.34-.086.696 0 1.037.135-.113.282-.208.44-.283 0 0-.063-.377-.282-.754h-.158zM379.329 243.106s24.316 5.403 45.271-4.87l-4.869-9.99-40.402 14.86z" fill="#454545"/><path d="M342.792 127.65a103.174 103.174 0 0160.853 44.423s15.457 19.101 21.395 52.151a82.277 82.277 0 01-53.062 18.096s-6.284-1.225-15.457-36.034" fill="#fff"/><path d="M371.977 243.891c-1.539-.251-8.168-3.142-16.965-37.197l3.142-.785c7.634 29.468 13.384 34.244 14.295 34.84a82.472 82.472 0 0051.02-17.121 122.339 122.339 0 00-20.923-50.581 102.608 102.608 0 00-60.257-43.857l.817-3.142a105.69 105.69 0 0162.016 45.271c.471.566 15.708 19.573 21.551 52.623v.848l-.628.597c-.754.722-20.295 18.504-54.068 18.504z" fill="#454545"/><path d="M360.997 225.696l-3.791 73.071 3.137.162 3.791-73.07-3.137-.163z" fill="#454545"/><path d="M273.613 87.437l-4.744 34.087a17.53 17.53 0 0012.001 19.29c2.9.794 5.959.794 8.859 0a17.564 17.564 0 0012.881-19.227l-3.99-32.453a33.834 33.834 0 01-25.007-1.697z" fill="#fff"/><path d="M285.551 143.076a18.137 18.137 0 01-5.152-.786 19.128 19.128 0 01-13.101-20.986l5.058-36.286 1.979 1.037a32.36 32.36 0 0023.751 1.602l1.854-.66 4.241 34.558a18.847 18.847 0 01-10.812 19.809 18.85 18.85 0 01-7.818 1.712zm-10.682-53.408l-4.461 32.076a16.027 16.027 0 0010.902 17.562 15.18 15.18 0 008.042 0 15.925 15.925 0 009.164-6.537 15.924 15.924 0 002.555-10.962l-3.77-30.757a35.346 35.346 0 01-22.432-1.257v-.125z" fill="#454545"/><path d="M299.845 102.926s-12.001 2.199-17.404-3.645a38.897 38.897 0 01-7.572-11.75h23.688l1.288 15.395z" fill="#454545"/><path d="M288.221 90.799c18.513 0 33.521-15.008 33.521-33.522 0-18.513-15.008-33.52-33.521-33.52S254.7 38.763 254.7 57.276c0 18.514 15.008 33.522 33.521 33.522z" fill="#fff"/><path d="M288.221 92.37a35.094 35.094 0 01-34.277-42.015 35.094 35.094 0 0169.495 6.923 35.119 35.119 0 01-10.332 24.849 35.125 35.125 0 01-24.886 10.243zm0-67.043a31.95 31.95 0 1032.076 31.95 31.979 31.979 0 00-32.076-31.95z" fill="#454545"/><path d="M266.638 41.663s-16.148-16.619-5.246-33.112c10.901-16.494 37.699 4.43 37.699 4.43s.943-12.065 17.468-8.043c0 0 11.875 2.764 2.796 22.148 0 0 14.923-10.964 17.75 4.179 0 0 3.142 18.85-16.116 35.532 0 0-1.226-5.184-3.142-4.116-1.916 1.068-3.613 3.927-6.283 4.116-2.671.188-2.011-25.133-2.011-25.133h-42.915z" fill="#454545"/><path d="M305.783 23.316a.848.848 0 01-.754-.534 18.161 18.161 0 00-5.781-9.142.786.786 0 01.911-1.162 19.577 19.577 0 016.284 9.959.788.788 0 01-.503.974l-.157-.095z" fill="#fff"/><path d="M291.583 8.017a22.214 22.214 0 00-27.113-5.624s-11.529 6.943-7.916 24.693c0 0-14.892-3.298-17.719 11.844 0 0-3.142 11.153 16.116 27.867 0 0 1.194-5.184 3.142-4.116 1.948 1.068 3.644 3.927 6.44 4.116 2.796.188 2.042-25.133 2.042-25.133" fill="#454545"/><path d="M314.674 31.328a.723.723 0 01-.346 0 .788.788 0 01-.418-.8.784.784 0 01.104-.3c5.058-10.399-.691-16.43-.942-16.682a.785.785 0 010-1.1.752.752 0 01.942.032s6.786 7.005 1.225 18.473a.745.745 0 01-.565.377zM273.487 33.118c-11.562-.44-11.876-16.62-11.876-16.776a.79.79 0 01.754-.723.787.787 0 01.786.786s.314 14.828 10.367 15.205a.782.782 0 01.547.252.792.792 0 01.207.565.755.755 0 01-.785.691zM324.978 59.382h-.377a.816.816 0 01-.345-1.068c7.603-14.954 7.32-21.143 6.472-23.5-.503-1.35-1.194-1.664-1.226-1.664a.819.819 0 01-.439-1.037.736.736 0 01.395-.422.757.757 0 01.578-.018 3.795 3.795 0 012.074 2.42c1.257 3.14 1.162 10.021-6.44 24.944a.818.818 0 01-.692.345zM253.098 59.382a.816.816 0 01-.723-.408c-7.571-14.923-7.697-21.803-6.44-24.945a3.8 3.8 0 012.073-2.419.785.785 0 011.006.471.822.822 0 01-.472 1.006s-.722.345-1.193 1.665c-.88 2.356-1.163 8.545 6.283 23.5a.817.817 0 01-.346 1.067l-.188.063zM314.297 65.509s3.644-11.342 7.445-8.231c9.425 7.728-2.921 14.577-2.921 14.577" fill="#fff"/><path d="M318.821 73.425a1.54 1.54 0 01-1.351-.816 1.568 1.568 0 01.597-2.137c1.476-.817 5.309-3.644 5.592-6.754a6.29 6.29 0 00-2.922-5.215c-.282-.22-.377-.189-.471-.189-1.319.408-3.393 4.273-4.492 7.666a1.603 1.603 0 01-1.98 1.036 1.574 1.574 0 01-1.005-1.979c.471-1.445 2.953-8.67 6.597-9.739a3.615 3.615 0 013.331.754A9.424 9.424 0 01326.801 64c-.503 5.404-6.943 9.08-7.195 9.237-.242.125-.512.19-.785.188z" fill="#454545"/><path d="M261.643 65.509s-3.676-11.342-7.32-8.231c-9.425 7.728 2.89 14.577 2.89 14.577" fill="#fff"/><path d="M257.088 73.425a1.567 1.567 0 01-.754-.188c-.283-.157-6.724-3.833-7.195-9.236a9.212 9.212 0 014.053-7.949 3.613 3.613 0 013.33-.754c3.644 1.068 6.283 8.294 6.598 9.74a1.543 1.543 0 01-1.006 1.978 1.602 1.602 0 01-1.979-1.036c-1.1-3.393-3.142-7.258-4.493-7.666 0 0-.188 0-.439.189a6.284 6.284 0 00-2.954 5.215c.283 3.141 4.147 5.937 5.593 6.754a1.577 1.577 0 01.758.938 1.564 1.564 0 01-.13 1.199 1.539 1.539 0 01-1.382.816z" fill="#454545"/><path d="M166.42 292.304l30.568-53.817-36.506-17.027-25.102 47.878" fill="#fff"/><path d="M166.357 293.874a1.686 1.686 0 01-.785-.188 1.6 1.6 0 01-.597-2.136l29.751-52.34-33.616-15.708-24.316 46.59a1.6 1.6 0 01-2.136.66 1.572 1.572 0 01-.66-2.105l25.133-47.879a1.604 1.604 0 012.074-.722l36.568 17.028c.396.19.701.528.849.942.157.404.157.853 0 1.257l-30.851 53.816a1.57 1.57 0 01-1.414.785z" fill="#454545"/><path d="M157.937 284.387l76.908 20.263c1.28.299 2.583.488 3.895.566 3.55 0 14.578-1.131 20.735.408a1.73 1.73 0 01.914 2.454c-.16.291-.401.53-.694.688-3.142 1.257-8.262 2.105-9.142 3.142 0 0-2.011 2.356 3.142 3.864 5.843 1.728 19.226 5.089 27.583 6.44a1.481 1.481 0 011.179 1.558 1.477 1.477 0 01-1.399 1.364 175.978 175.978 0 01-27.018-2.576l.346.502c7.948 2.262 22.808 5.812 30.788 7.195a1.477 1.477 0 011.277 1.042 1.476 1.476 0 01-.109 1.13 1.478 1.478 0 01-1.451.781 201.958 201.958 0 01-30.285-2.922 3.985 3.985 0 01-.157.346c6.597 1.885 17.436 4.21 24.567 5.372a1.477 1.477 0 01-.22 2.922 183.253 183.253 0 01-28.652-2.859l-.377.314a48.483 48.483 0 0013.447 3.644c1.853.252 1.476 3.393-.377 3.33a231.709 231.709 0 01-27.018-3.141l-8.86-1.571-88.626-19.038a20.458 20.458 0 01-16.159-20.458c.071-3.154.87-6.249 2.336-9.042l10.902-20.735" fill="#fff"/><path d="M262.899 345.021a233.514 233.514 0 01-27.238-3.142l-8.859-1.571-88.72-19.195a21.987 21.987 0 01-15.388-12.157 22.003 22.003 0 01.434-19.605l10.87-20.735a1.57 1.57 0 012.12-.676 1.572 1.572 0 01.676 2.121l-10.902 20.766a18.85 18.85 0 0012.755 27.207l88.658 19.038 8.796 1.571a235.817 235.817 0 0026.798 3.142v-.346a45.775 45.775 0 01-13.791-3.676 1.53 1.53 0 01-.849-1.225 1.574 1.574 0 01.597-1.382 2.645 2.645 0 011.634-.629 179.066 179.066 0 0028.275 2.828 216.69 216.69 0 01-24.756-5.184 1.626 1.626 0 01-1.002-.909 1.64 1.64 0 01.028-1.353 2.191 2.191 0 011.822-1.194 200.337 200.337 0 0030.034 2.922c-8.326-1.288-23.217-4.869-30.945-7.069a1.638 1.638 0 01-.849-.596l-.345-.472a1.508 1.508 0 010-1.728 1.572 1.572 0 011.602-.722 187.81 187.81 0 0026.735 2.545 239.884 239.884 0 01-27.772-6.284c-2.576-.754-4.052-1.853-4.524-3.393a3.145 3.145 0 01.629-3.141c.785-1.037 2.607-1.571 5.78-2.451 1.351-.377 2.796-.785 4.022-1.225v-.346a73.391 73.391 0 00-17.468-.282h-3.142a21.714 21.714 0 01-4.272-.629l-76.813-20.043a1.58 1.58 0 01-.964-.724 1.565 1.565 0 01-.167-1.193 1.57 1.57 0 011.916-1.099l76.939 20.075c1.165.285 2.353.464 3.55.534h2.922a71.956 71.956 0 0118.127.565 3.33 3.33 0 012.545 3.142 3.295 3.295 0 01-2.137 3.142c-1.288.502-2.827.911-4.304 1.319-1.45.331-2.861.816-4.209 1.445 0 0 .219.723 2.387 1.351 6.064 1.791 19.321 5.09 27.395 6.283a3.14 3.14 0 012.052 3.195 3.149 3.149 0 01-.784 1.843 3.148 3.148 0 01-1.739.994h-6.283c3.927.88 7.665 1.665 10.556 2.168a3.142 3.142 0 012.513 3.142 3.142 3.142 0 01-3.142 2.827h-4.901a3.145 3.145 0 011.459 3.343 3.144 3.144 0 01-2.684 2.469 119.67 119.67 0 01-13.289-.722c.408.632.575 1.39.471 2.136a3.146 3.146 0 01-.869 2.029 3.15 3.15 0 01-1.99.956z" fill="#454545"/><path d="M132.081 299.215s3.519 7.477 0 7.289c-3.518-.189-1.131-3.644-1.131-3.644" fill="#fff"/><path d="M132.207 308.075h-.22a3.4 3.4 0 01-3.142-1.728 4.876 4.876 0 01.817-4.398 1.598 1.598 0 011.603-.629 19.515 19.515 0 00-.629-1.414 1.603 1.603 0 01.754-2.104 1.56 1.56 0 011.21-.063 1.575 1.575 0 01.895.817c.817 1.759 2.608 6.094 1.163 8.293a2.86 2.86 0 01-2.451 1.226zm-.471-3.142h.408a1.948 1.948 0 000-.911 3.912 3.912 0 00-.377.88l-.031.031zM196.988 243.106s-24.348 5.403-45.303-4.87l4.901-9.99 40.402 14.86z" fill="#454545"/><path d="M233.525 127.65a103.17 103.17 0 00-60.885 44.423s-15.426 19.101-21.363 52.151c0 0 19.509 18.096 53.062 18.096 0 0 6.283-1.225 15.457-36.034" fill="#fff"/><path d="M204.559 243.86c-34.024 0-53.408-17.719-54.35-18.473l-.628-.597.157-.848c5.937-33.051 21.049-52.057 21.708-52.874a105.31 105.31 0 0161.671-44.926l.817 3.142a102.509 102.509 0 00-59.911 43.417 123.735 123.735 0 00-21.049 50.801 82.374 82.374 0 0051.083 17.247c.911-.597 6.629-5.372 14.263-34.84l3.141.785c-8.828 34.055-15.425 36.946-16.682 37.166h-.22z" fill="#454545"/><path d="M212.979 216.056h153.94a10.21 10.21 0 0110.21 10.21v100.376a5.121 5.121 0 01-5.12 5.121h-164.12a5.124 5.124 0 01-5.121-5.121V226.266a10.208 10.208 0 0110.211-10.21z" fill="#fff"/><path d="M371.977 333.271H207.889a6.688 6.688 0 01-4.709-1.938 6.684 6.684 0 01-1.982-4.691V226.267a11.782 11.782 0 0111.781-11.782h153.94a11.785 11.785 0 0111.781 11.782v100.375a6.688 6.688 0 01-6.723 6.629zM212.979 217.627a8.638 8.638 0 00-8.64 8.64v100.375a3.548 3.548 0 003.55 3.55h164.088a3.58 3.58 0 003.55-3.55V226.267a8.64 8.64 0 00-8.639-8.64H212.979z" fill="#454545"/><path d="M371.977 331.7H207.889a5.121 5.121 0 00-5.121 5.121v5.435a5.121 5.121 0 005.121 5.121h164.088a5.121 5.121 0 005.121-5.121v-5.435a5.121 5.121 0 00-5.121-5.121z" fill="#fff"/><path d="M371.977 348.916H207.889a6.694 6.694 0 01-6.691-6.566v-5.435c0-.877.173-1.746.509-2.556a6.683 6.683 0 011.452-2.165 6.676 6.676 0 014.73-1.939h164.088a6.665 6.665 0 016.182 4.104c.337.81.51 1.679.51 2.556v5.435a6.695 6.695 0 01-6.692 6.566zm-164.088-15.708a3.524 3.524 0 00-3.279 2.165 3.515 3.515 0 00-.271 1.354v5.623a3.523 3.523 0 002.187 3.289c.432.176.896.265 1.363.261h164.088c.942 0 1.845-.374 2.51-1.04a3.547 3.547 0 001.04-2.51v-5.435a3.549 3.549 0 00-3.55-3.519l-164.088-.188zM289.918 296.513c11.035 0 19.98-8.945 19.98-19.98 0-11.036-8.945-19.981-19.98-19.981-11.036 0-19.981 8.945-19.981 19.981 0 11.035 8.945 19.98 19.981 19.98zM284.891 155.485a26.21 26.21 0 01-20.389-7.917c-9.739-10.744-7.76-28.086-7.697-28.809a1.577 1.577 0 011.144-1.335 1.577 1.577 0 011.202.145c.181.102.34.238.469.401a1.595 1.595 0 01.326 1.166c0 .157-1.885 16.683 6.881 26.327a23.524 23.524 0 0018.849 7.006 22.933 22.933 0 0018.285-7.697c8.2-10.053 5.278-26.672 5.246-26.829a1.598 1.598 0 01.694-1.636 1.6 1.6 0 012.448 1.039c0 .754 3.142 18.221-5.875 29.405a25.977 25.977 0 01-20.735 8.734h-.848z" fill="#454545"/><path d="M342.634 420.294s75.808 15.708 94.658-7.445c0 0 17.279-27.898-8.639-29.469l-82.877 8.639" fill="#fff"/><path d="M392.272 427.174a276.245 276.245 0 01-49.983-5.34l.628-3.142c.754.157 75.085 15.268 93.118-6.912 0 0 8.232-13.509 4.179-21.3-1.728-3.33-5.655-5.215-11.687-5.592l-82.625 8.639-.314-3.141 82.845-8.64c7.477.44 12.283 2.891 14.577 7.289 4.869 9.425-4.053 23.939-4.43 24.568-8.325 10.43-27.426 13.571-46.308 13.571z" fill="#454545"/><path d="M360.165 423.216c23.593 3.142 63.649 5.592 76.624-10.399 0 0 17.279-27.866-8.639-29.437l-54.445 5.686c0 1.194-1.571 32.045-13.54 34.15z" fill="#454545"/><path d="M342.634 420.294l-37.699-1.602s-12.912-43.826 11.058-44.926l29.783 18.379" fill="#fff"/><path d="M342.634 421.865l-38.673-1.665-.315-1.068c-.345-1.163-8.262-28.275.597-40.842a14.451 14.451 0 0111.75-6.283h.471l30.192 18.661a1.547 1.547 0 01.744 1.565 1.543 1.543 0 01-.21.572 1.6 1.6 0 01-2.168.534l-29.343-18.127a11.284 11.284 0 00-8.954 4.838c-7.037 9.99-1.79 32.044-.44 37.165l36.412 1.54a1.57 1.57 0 110 3.141l-.063-.031z" fill="#454545"/><path d="M324.853 379.107s11.529 28.746-7.666 41.187l-18.85-2.23 10.996-48.696 15.52 9.739z" fill="#454545"/><path d="M260.386 407.948s-116.837-15.52-139.614-67.357 11.027-60.477 11.027-60.477c28.275-10.21 183.001 88.752 183.001 88.752s11.781 32.987-16.494 56.549l-141.374-65.189" fill="#fff"/><path d="M298.494 427.175l-38.548-17.782a393.487 393.487 0 01-61.324-14.263c-42.978-13.823-69.682-31.982-79.39-53.911-8.859-20.106-10.399-36.286-4.649-48.098a27.802 27.802 0 0116.776-14.546c28.715-10.305 177.911 84.887 184.226 88.908l.471.314.189.503c0 .346 11.812 34.275-16.965 58.278l-.786.597zm-140.965-68.394l140.494 64.781a50.835 50.835 0 0015.426-53.691c-4.524-2.859-41.156-26.076-80.364-47.847-69.116-38.517-93.055-43.261-100.784-40.433a25.127 25.127 0 00-14.828 12.943c-5.309 10.933-3.707 26.233 4.712 45.397 18.002 40.841 97.14 59.094 126.986 64.561l-92.93-42.852 1.288-2.859z" fill="#454545"/><path d="M279.456 347.125s-36.129 19.95-57.021 43.355l26.924 12.567 38.799-50.518-8.702-5.404zM412.19 385.108s-32.202 22.243-64.026 24.316l-2.388-17.405 66.414-6.911z" fill="#454545"/><path d="M240.468 420.294c-.408 0-7.603 1.571-17.97 2.922-23.594 3.142-63.65 5.592-76.625-10.399 0 0-17.279-27.866 8.64-29.437l54.445 5.686 28.274 2.953" fill="#fff"/><path d="M190.265 427.174c-19.384 0-37.386-3.141-45.617-13.289-.471-.785-9.425-15.331-4.524-24.693 2.262-4.43 7.069-6.88 14.295-7.32l83.096 8.671-.314 3.142-82.845-8.64c-5.781.377-9.708 2.262-11.436 5.624-4.052 7.791 4.21 21.3 4.304 21.426 12.41 15.299 52.372 12.566 75.086 9.676 10.681-1.414 17.75-2.891 17.813-2.891l.722 3.142c-.754.189-8.042 1.634-18.127 2.953a253.965 253.965 0 01-32.453 2.199z" fill="#454545"/><path d="M240.499 420.294l37.7-1.602s12.975-43.983-10.933-45.051l-29.783 18.378s-.408 1.069-.911 2.828" fill="#fff"/><path d="M240.499 421.865a1.567 1.567 0 01-1.57-1.571 1.568 1.568 0 011.57-1.571l36.412-1.539c1.351-5.121 6.629-27.175-.44-37.166a11.276 11.276 0 00-8.859-4.775l-28.998 17.845c0 .439-.408 1.193-.691 2.167a1.569 1.569 0 01-1.916 1.1 1.604 1.604 0 01-1.1-1.948c.534-1.853.974-2.953.974-2.953l.189-.503 30.631-18.85h.502a14.487 14.487 0 0111.75 6.284c8.86 12.566.911 39.741.597 40.841l-.346 1.068-38.642 1.665-.063-.094z" fill="#454545"/><path d="M259.192 378.542s-7.697 26.641 6.755 39.522l18.41-1.571-8.891-47.125-16.274 9.174z" fill="#454545"/><path d="M426.265 360.226l-141.374 65.189c-28.275-23.562-16.494-56.549-16.494-56.549s154.726-98.962 183.001-88.752c0 0 33.773 8.64 10.996 60.477-22.777 51.837-139.646 67.357-139.646 67.357" fill="#fff"/><path d="M284.64 427.174l-.754-.628c-28.777-24.002-17.091-57.932-16.965-58.277l.189-.503.439-.314c6.284-4.053 155.732-99.245 184.383-88.877a27.665 27.665 0 0116.557 14.483c5.749 11.812 4.178 27.992-4.65 48.098-9.645 21.992-36.317 40.088-79.326 53.974a396.894 396.894 0 01-61.325 14.263l-38.548 17.781zm-14.923-57.303a50.672 50.672 0 0015.426 53.691l140.462-64.781 1.32 2.859-92.93 42.852c29.846-5.467 108.984-23.625 126.954-64.561 8.451-19.164 10.022-34.558 4.744-45.397a25.129 25.129 0 00-14.703-12.912c-7.886-2.859-31.668 1.885-100.941 40.402-39.176 21.803-75.808 44.988-80.332 47.847z" fill="#454545"/><path d="M414.327 365.724l-52.497 34.338-33.647 5.372 86.144-39.71zM222.498 423.216c-23.594 3.142-63.65 5.592-76.625-10.399 0 0-17.279-27.866 8.64-29.437l54.445 5.686c.062 1.194 1.57 32.045 13.54 34.15z" fill="#454545"/><path d="M456.456 153.851a31.417 31.417 0 00-31.417 31.417 31.416 31.416 0 00-31.416-31.417 31.416 31.416 0 0031.416-31.416 31.417 31.417 0 0031.417 31.416z" fill="#FFCB63"/></svg>