<svg width="26" height="26" fill="none" xmlns="http://www.w3.org/2000/svg"><path d="M25.675 7.765a9.252 9.252 0 00-.594-3.139 6.53 6.53 0 00-3.73-3.73A9.358 9.358 0 0018.254.3C16.892.24 16.46.223 13 .223c-3.46 0-3.903 0-5.256.078A9.358 9.358 0 004.65.896a6.527 6.527 0 00-3.73 3.73 9.285 9.285 0 00-.594 3.095c-.06 1.365-.08 1.797-.08 5.256 0 3.46 0 3.902.08 5.256a9.344 9.344 0 00.594 3.098A6.53 6.53 0 004.65 25.06a9.326 9.326 0 003.096.638c1.364.06 1.796.079 5.255.079 3.46 0 3.903 0 5.256-.08a9.333 9.333 0 003.097-.593 6.537 6.537 0 003.73-3.73 9.329 9.329 0 00.594-3.098c.06-1.363.08-1.795.08-5.256-.004-3.46-.004-3.899-.083-5.255zM12.99 19.52a6.548 6.548 0 01-6.549-6.549 6.548 6.548 0 0111.18-4.63 6.55 6.55 0 01-4.63 11.18zm6.81-11.813a1.525 1.525 0 01-.584-2.938 1.526 1.526 0 11.584 2.938z" fill="#231F20" fill-opacity=".9"/><path d="M12.991 17.224a4.254 4.254 0 100-8.508 4.254 4.254 0 000 8.508z" fill="#231F20" fill-opacity=".9"/></svg>