<svg width="16" height="14" fill="none" xmlns="http://www.w3.org/2000/svg"><path opacity=".4" d="M15.5 9.955a3.785 3.785 0 01-3.773 3.795H4.287A3.785 3.785 0 01.5 9.97v-.007s.004-3.32.01-4.99c.001-.313.361-.488.606-.293a814.535 814.535 0 015.009 4.025 3.05 3.05 0 001.897.667c.69 0 1.365-.24 1.898-.675.04-.027 3.155-2.527 4.964-3.964a.375.375 0 01.608.292c.008 1.657.008 4.93.008 4.93z" fill="#F67952"/><path d="M15.107 2.255A3.776 3.776 0 0011.773.25H4.288A3.776 3.776 0 00.953 2.255a.648.648 0 00.166.809l5.569 4.454c.39.315.862.472 1.335.472h.015a2.12 2.12 0 001.335-.472l5.568-4.454a.648.648 0 00.166-.809z" fill="#F67952"/></svg>