<svg width="18" height="16" fill="none" xmlns="http://www.w3.org/2000/svg"><path d="M15.53 10.028c-.086-.6-.55-1.069-1.146-1.208-2.32-.544-2.9-1.88-2.999-3.36-.411-.077-1.143-.16-2.385-.16-1.242 0-1.974.083-2.385.16-.098 1.48-.68 2.816-2.999 3.36-.597.14-1.06.607-1.146 1.208l-.448 3.098c-.157 1.09.644 2.074 1.758 2.074h10.44c1.113 0 1.915-.984 1.758-2.074l-.448-3.098zM9 12.943c-1.256 0-2.273-1.008-2.273-2.25S7.744 8.443 9 8.443c1.255 0 2.273 1.008 2.273 2.25s-1.018 2.25-2.273 2.25zM17.955 4.4C17.933 3.05 14.497.8 9 .8 3.502.8.066 3.05.045 4.4c-.02 1.35.019 3.107 2.281 2.814C4.973 6.871 4.81 5.947 4.81 4.626c0-.922 2.153-1.144 4.19-1.144 2.037 0 4.189.222 4.19 1.144 0 1.321-.163 2.245 2.484 2.588 2.261.293 2.302-1.464 2.281-2.814z" fill="#F67952" fill-opacity=".7"/></svg>