<svg width="62" height="60" fill="none" xmlns="http://www.w3.org/2000/svg"><path d="M59.624 21.517L41.276 18.85 33.074 2.222a2.3 2.3 0 00-1.048-1.048 2.322 2.322 0 00-3.1 1.048L20.724 18.85 2.376 21.517a2.308 2.308 0 00-1.979 2.318c.008.614.26 1.2.7 1.628l13.275 12.942-3.137 18.276a2.309 2.309 0 003.354 2.436L31 50.488l16.411 8.629c.449.238.969.318 1.468.231a2.309 2.309 0 001.886-2.667l-3.137-18.276 13.276-12.942c.36-.354.6-.817.672-1.323a2.304 2.304 0 00-1.952-2.623zM42.042 36.584l2.609 15.198L31 44.613 17.35 51.79l2.608-15.197L8.916 25.824l15.262-2.219L31 9.781l6.822 13.824 15.262 2.219-11.042 10.76z" fill="#FFC107"/></svg>