<svg height="511pt" viewBox="-2 1 511 512" width="511pt" xmlns="http://www.w3.org/2000/svg"><path d="M506.742 262.176c0 127.148-103.074 230.219-230.222 230.219-127.145 0-230.22-103.07-230.22-230.22 0-127.148 103.075-230.218 230.22-230.218 127.148 0 230.222 103.07 230.222 230.219zm0 0" fill="#ffe967"/><path d="M87.508 262.176c0-120.203 92.125-218.867 209.617-229.293-6.79-.602-13.66-.926-20.605-.926-127.145 0-230.22 103.07-230.22 230.219 0 127.148 103.075 230.219 230.22 230.219 6.945 0 13.816-.325 20.605-.926-117.492-10.422-209.617-109.09-209.617-229.293zm0 0" fill="#ffb44f"/><path d="M400.078 391.863c-15.492 0-28.05 12.559-28.05 28.051v19.703h40.21v-35.59c0-6.718-5.445-12.164-12.16-12.164zm0 0M152.96 391.863c15.493 0 28.052 12.559 28.052 28.051v19.703H140.8v-35.59c0-6.718 5.445-12.164 12.16-12.164zm0 0" fill="#ff9c43"/><path d="M426.816 466.258c0 25.262-20.48 45.742-45.742 45.742s-45.742-20.48-45.742-45.742c0-25.262 20.48-45.742 45.742-45.742s45.742 20.48 45.742 45.742zm0 0M217.707 466.258c0 25.262-20.477 45.742-45.742 45.742-25.262 0-45.742-20.48-45.742-45.742 0-25.262 20.48-45.742 45.742-45.742 25.265 0 45.742 20.48 45.742 45.742zm0 0" fill="#ffb44f"/><path d="M378.613 291.773a7.729 7.729 0 01-7.726-7.726v-18.629c0-4.27 3.46-7.727 7.726-7.727a7.724 7.724 0 017.727 7.727v18.629a7.726 7.726 0 01-7.727 7.726zm0 0" fill="#2d3c50"/><path d="M392.133 320.95h-27.04a7.723 7.723 0 01-7.722-7.727 7.725 7.725 0 017.723-7.727h27.039c4.27 0 7.726 3.461 7.726 7.727 0 4.27-3.46 7.726-7.726 7.726zm0 0" fill="#ff8892"/><path d="M174.426 291.773a7.729 7.729 0 01-7.727-7.726v-18.629c0-4.27 3.461-7.727 7.727-7.727a7.724 7.724 0 017.726 7.727v18.629a7.726 7.726 0 01-7.726 7.726zm0 0" fill="#2d3c50"/><path d="M187.945 320.95H160.91a7.724 7.724 0 01-7.726-7.727 7.726 7.726 0 017.726-7.727h27.035c4.27 0 7.727 3.461 7.727 7.727 0 4.27-3.461 7.726-7.727 7.726zm0 0" fill="#ff8892"/><path d="M276.52 319.828c-9.348 0-18.122-3.906-24.079-10.719a7.725 7.725 0 01.735-10.902 7.728 7.728 0 0110.902.73c3.02 3.458 7.555 5.438 12.442 5.438s9.421-1.98 12.44-5.437a7.725 7.725 0 0110.903-.731 7.725 7.725 0 01.735 10.902c-5.957 6.813-14.73 10.72-24.078 10.72zm0 0" fill="#2d3c50"/><g fill="#ffe967"><path d="M99.41 56.016c-2.762 13.093-12.222 22.746-25.637 25.523-4.68.969-8.02 5.117-8.02 10v.54c0 4.796 3.368 8.929 8.063 9.905 13.387 2.786 22.832 12.426 25.59 25.5.992 4.704 4.989 8.164 9.918 8.164h.64c4.782 0 8.93-3.34 9.9-8.02 2.773-13.41 12.421-22.87 25.511-25.636 4.7-.992 8.16-4.984 8.16-9.789v-.89c0-4.81-3.46-8.801-8.16-9.793-13.09-2.762-22.738-12.223-25.512-25.633-.968-4.68-5.12-8.02-10.023-8.02h-.64c-4.802 0-8.802 3.45-9.79 8.149zm0 0M24.613 5.84c-1.98 9.383-8.758 16.297-18.367 18.285C2.891 24.816.5 27.793.5 31.289v.387a7.25 7.25 0 005.777 7.097c9.59 1.997 16.356 8.907 18.336 18.274.707 3.367 3.57 5.844 7.102 5.844h.46c3.427 0 6.4-2.391 7.095-5.743 1.984-9.609 8.898-16.386 18.277-18.367 3.367-.71 5.844-3.574 5.844-7.015v-.637c0-3.445-2.477-6.305-5.844-7.016-9.379-1.98-16.293-8.758-18.277-18.367C38.574 2.391 35.598 0 32.086 0h-.461c-3.441 0-6.305 2.473-7.012 5.84zm0 0"/></g></svg>