<svg width="34" height="20" fill="none" xmlns="http://www.w3.org/2000/svg"><path fill-rule="evenodd" clip-rule="evenodd" d="M33.22 1.426c.236-.773 0-1.343-1.125-1.343h-3.72c-.945 0-1.382.492-1.618 1.035 0 0-1.892 4.527-4.57 7.468-.868.853-1.261 1.124-1.735 1.124-.236 0-.592-.271-.592-1.046V1.426c0-.929-.26-1.343-1.048-1.343h-5.848c-.59 0-.946.431-.946.84 0 .88 1.34 1.084 1.477 3.56v5.381c0 1.18-.217 1.394-.69 1.394-1.26 0-4.328-4.549-6.148-9.754-.353-1.013-.71-1.42-1.66-1.42H1.275C.212.083 0 .574 0 1.117c0 .966 1.26 5.765 5.872 12.114 3.074 4.335 7.402 6.685 11.345 6.685 2.364 0 2.656-.522 2.656-1.421v-3.277c0-1.044.224-1.252.973-1.252.553 0 1.498.272 3.705 2.361 2.522 2.478 2.937 3.589 4.356 3.589h3.719c1.062 0 1.595-.522 1.289-1.553-.337-1.026-1.541-2.514-3.138-4.281-.867-1.006-2.167-2.09-2.563-2.632-.55-.696-.393-1.006 0-1.625 0 0 4.534-6.27 5.005-8.4h.002z" fill="#231F20" fill-opacity=".9"/></svg>