<svg width="28" height="28" fill="none" xmlns="http://www.w3.org/2000/svg"><path d="M25.56 6.69C21.48.4 13.15-1.47 6.69 2.44.4 6.35-1.64 14.85 2.44 21.14l.34.51-1.36 5.1 5.1-1.36.51.34c2.21 1.19 4.59 1.87 6.97 1.87 2.55 0 5.1-.68 7.31-2.04 6.29-4.08 8.16-12.41 4.25-18.87zm-3.57 13.09c-.68 1.02-1.53 1.7-2.72 1.87-.68 0-1.53.34-4.93-1.02-2.89-1.36-5.27-3.57-6.97-6.12-1.02-1.19-1.53-2.72-1.7-4.25 0-1.36.51-2.55 1.36-3.4.34-.34.68-.51 1.02-.51h.85c.34 0 .68 0 .85.68.34.85 1.19 2.89 1.19 3.06.17.17.17.51 0 .68.17.34 0 .68-.17.85-.17.17-.34.51-.51.68-.34.17-.51.51-.34.85a19.57 19.57 0 002.38 2.89c1.02.85 2.04 1.53 3.23 2.04.34.17.68.17.85-.17.17-.34 1.02-1.19 1.36-1.53.34-.34.51-.34.85-.17l2.72 1.36c.34.17.68.34.85.51.17.51.17 1.19-.17 1.7z" fill="#231F20" fill-opacity=".9"/></svg>