<svg xmlns="http://www.w3.org/2000/svg" viewBox="0 0 512.016 512.016"><circle cx="256.008" cy="249.008" r="249.008" fill="#8cc63e"/><g fill="#7fb239"><path d="M505.016 249.008c0 137.584-111.504 249.008-249.008 249.008-78.288 0-148.16-36.112-193.84-92.672 42.72 34.544 97.12 55.168 156.336 55.168 137.504 0 249.008-111.44 249.008-249.008 0-59.216-20.624-113.616-55.168-156.336 56.496 45.664 92.672 115.552 92.672 193.84z"/><path d="M247.288 214.64c0 50.608-41.008 91.6-91.6 91.6s-91.6-41.008-91.6-91.6c0-50.448 41.008-91.456 91.6-91.456 50.608 0 91.6 40.992 91.6 91.456z"/></g><path d="M226.76 214.64c0 39.296-31.776 71.2-71.056 71.2-39.296 0-71.2-31.92-71.2-71.2 0-39.152 31.92-71.072 71.2-71.072s71.056 31.92 71.056 71.072z" fill="#e24b4b"/><circle cx="155.64" cy="214.688" r="38.064" fill="#3e4347"/><path d="M176.376 207.728c-2.368 2.496-7.616 1.584-11.424-2.224s-4.848-9.184-2.368-11.68c2.624-2.496 7.872-1.44 11.68 2.368 3.824 3.792 4.736 9.04 2.112 11.536z" fill="#fff"/><g fill="#7fb239"><path d="M234.312 178.608c-13.2-30.288-43.408-51.52-78.624-51.52s-65.424 21.232-78.624 51.52c51.232 7.376 103.648 7.36 157.248 0zM447.928 214.64c0 50.608-41.008 91.6-91.6 91.6s-91.6-41.008-91.6-91.6c0-50.448 41.008-91.456 91.6-91.456 50.592 0 91.6 40.992 91.6 91.456z"/></g><path d="M427.384 214.64c0 39.296-31.776 71.2-71.056 71.2-39.296 0-71.2-31.92-71.2-71.2 0-39.152 31.92-71.072 71.2-71.072s71.056 31.92 71.056 71.072z" fill="#e24b4b"/><circle cx="356.264" cy="214.688" r="38.064" fill="#3e4347"/><path d="M377 207.728c-2.368 2.496-7.616 1.584-11.408-2.224-3.808-3.808-4.848-9.184-2.368-11.68 2.624-2.496 7.872-1.44 11.68 2.368 3.808 3.792 4.72 9.04 2.096 11.536z" fill="#fff"/><path d="M434.952 178.608c-13.2-30.288-43.408-51.52-78.624-51.52s-65.424 21.232-78.624 51.52c51.216 7.376 103.632 7.36 157.248 0z" fill="#7fb239"/><path d="M338.536 394.384c1.248 9.504-6.224 18.048-15.872 18.048H164.456c-9.648 0-17.12-8.56-15.872-18.048l9.024-68.32c1.088-7.936 7.936-13.856 15.872-13.856h140.16c7.936 0 14.784 5.904 15.872 13.856l9.024 68.32z" fill="#3e4347"/><g fill="#e24b4b"><path d="M237.08 478.896c-8.336.144-19.472-26.64-27.68-22.72s-4 13.76-3.2 21.76c1.44 17.12-20.8 17.6-20.8-7.2 0-11.04-11.68-47.36-11.68-23.68v51.52c0 19.36-20.8 14.88-20.8 4.8-.16-11.52-2.24-96.16 2.08-109.92 6.08-18.4 32.8-14.08 54.72-8.16 7.2 1.92 12.48-.48 18.24-3.36 5.92 7.04 7.84 17.28 7.36 26.56-.48 10.56 8.432 69.536 1.76 70.4zM323.48 462.416c-5.92 1.28-12.16-.48-18.08 0-9.12.8-16.16 11.36-24 16.16-4.64 2.72-10.72-.32-11.36-5.76-2.24-17.76-3.36-55.2-9.12-59.2-1.28-.96-3.04-1.76-4.48-.96-1.76.96-1.76 3.36-1.6 5.28.8 7.2 1.44 14.56 2.24 21.76.16 2.4.48 4.96-.16 7.2-.64 2.4-2.4 4.48-4.8 4.96-2.56.48-4.96-1.12-6.4-3.2s-1.92-4.64-2.4-7.04c-2.72-14.72-4.16-29.6-4.64-44.48 0-3.2-.16-6.56-.96-9.6-.64-1.76-2.08-5.6-3.84-8.64.32-.16.48-.32.8-.48 19.36-9.44 19.84 19.68 31.68 2.08 16-24 24.48-.32 40.16 4.336 8.32 2.24 17.6-1.6 25.92 1.12 23.04 7.984 18.24 71.184-8.96 76.464z"/></g><g fill="#fff"><path d="M313.336 346.688l-8.208 5.632-12.32-1.616-5.824-7.36-3.312-14.752 26.624-3.184zM248.024 343.312l5.28 6.464L267 353.088l5.824-7.36 3.28-17.136-26.624-3.184zM239.672 342.928c-2.016 2.848-4.24 6.304-6.256 9.152-5.44.784-8.528-.528-13.584-.832-2.224-2.528-4.24-4.576-5.84-6.784-.8-4.88-1.808-10.256-2.416-14.976l27.888-5.008c.016 5.04.208 12.144.208 18.448zM204.6 327.792l-4.896 21.536-6.048 4.288-13.824-1.28-6.064-3.344 2.88-19.952zM173.768 380l8.224-5.104 12.32 1.456 5.808 6.688 3.328 13.392-26.624 2.896zM239.08 383.072l-5.264-5.872-13.696-2.992-5.824 6.672-3.28 15.552 26.608 2.896zM247.432 383.424c2.016-2.576 4.24-5.728 6.256-8.304 5.44-.72 8.528.48 13.584.768 2.224 2.288 4.24 4.16 5.856 6.16.8 4.432 1.808 9.312 2.416 13.6l-27.888 4.544c-.016-4.592-.208-11.04-.224-16.768zM282.504 397.152l4.912-19.536 6.048-3.888 13.824 1.168 6.048 3.024-2.88 18.112z"/></g></svg>